#!OML:ASF I:\Actors\actors\Patient Classification 2\Patient 1\Session 1\actor1.ASF
:FULLY-SPECIFIED
:DEGREES
896
root -0.630239 18.8539 5.09293 4.90585 6.12333 -2.58186
lowerback 15.1228 0.0245181 -0.829775
upperback 0.103431 -0.0036763 1.23669
thorax -8.39367 0.0616127 1.79673
lowerneck -25.3973 -4.1897 -5.05339
upperneck 13.3643 -4.91991 5.11499
head 8.53248 -2.02105 1.85194
rclavicle 1.07592e-014 -2.65378e-014
rhumerus 31.9895 21.3169 -65.3347
rradius 61.2264
rwrist -46.218
rhand 6.84173 -64.7529
rfingers 7.12502
rthumb 32.125 -268.066
lclavicle 1.07592e-014 -2.65378e-014
lhumerus 28.4939 -25.7108 80.4036
lradius 65.8937
lwrist 61.4749
lhand -21.8075 7.05293
lfingers 7.12502
lthumb 4.59467 36.9831
rfemur 1.99304 -6.84547 16.5608
rtibia 7.15625e-015
rfoot -15.0667 -10.6996
rtoes 1.11504
lfemur -14.1157 -5.34499 -10.8468
ltibia 23.2582
lfoot -17.1479 9.39056
ltoes -55.6272
897
root -0.633059 18.8555 5.10604 4.95229 6.06112 -2.58491
lowerback 14.9197 0.0510318 -0.863563
upperback 0.0589039 0.0238001 1.20809
thorax -8.32836 0.0752447 1.77797
lowerneck -25.4002 -4.18296 -4.95602
upperneck 13.7244 -4.96351 5.12722
head 8.65755 -2.03225 1.83418
rclavicle -1.31695e-015 -4.96962e-016
rhumerus 32.9563 22.4524 -62.5378
rradius 60.9085
rwrist -47.7976
rhand 6.66631 -64.9385
rfingers 7.12502
rthumb 31.958 -267.847
lclavicle -1.31695e-015 -4.96962e-016
lhumerus 28.478 -25.8599 79.9772
lradius 65.4382
lwrist 61.6566
lhand -22.1398 7.38048
lfingers 7.12502
lthumb 4.27379 37.3174
rfemur 1.97708 -6.78736 16.5789
rtibia 6.36111e-015
rfoot -15.1057 -10.6652
rtoes 1.51999
lfemur -14.1098 -5.35748 -10.8344
ltibia 23.269
lfoot -17.1421 9.48969
ltoes -55.6325
898
root -0.636695 18.857 5.12059 4.93695 6.03962 -2.58813
lowerback 14.7427 0.0635293 -0.865203
upperback 0.0596051 0.0358992 1.15298
thorax -8.22796 0.0790234 1.71591
lowerneck -25.6237 -4.2032 -4.90462
upperneck 14.2205 -5.05249 5.27654
head 8.87443 -2.04645 1.86251
rclavicle -8.24956e-015 -1.16289e-014
rhumerus 32.4456 22.7403 -62.3653
rradius 61.0925
rwrist -47.3267
rhand 6.52999 -64.681
rfingers 7.12502
rthumb 31.8282 -268.079
lclavicle -8.24956e-015 -1.16289e-014
lhumerus 28.2012 -25.9699 79.903
lradius 65.29
lwrist 61.2964
lhand -22.3177 7.00415
lfingers 7.12502
lthumb 4.10199 36.9444
rfemur 2.03904 -6.7664 16.5963
rtibia -4.77083e-015
rfoot -15.1524 -10.646
rtoes 1.70486
lfemur -14.0489 -5.35037 -10.8265
ltibia 23.2831
lfoot -17.1044 9.52729
ltoes -55.542
899
root -0.639904 18.8585 5.1349 4.87197 6.08413 -2.58693
lowerback 14.6382 0.072723 -0.821404
upperback 0.0956357 0.0501567 1.08648
thorax -8.13027 0.0816827 1.61582
lowerneck -25.8291 -4.25999 -4.90627
upperneck 14.5263 -5.18323 5.50643
head 9.02968 -2.07484 1.92119
rclavicle 5.76476e-015 2.08724e-015
rhumerus 31.626 22.9552 -62.3423
rradius 61.966
rwrist -47.3467
rhand 5.73513 -63.887
rfingers 7.12502
rthumb 31.0709 -268.725
lclavicle 5.76476e-015 2.08724e-015
lhumerus 27.7957 -26.048 80.1549
lradius 65.4674
lwrist 60.4354
lhand -21.9538 6.04162
lfingers 7.12502
lthumb 4.45334 35.9748
rfemur 2.16592 -6.80854 16.6041
rtibia -8.74653e-015
rfoot -15.1688 -10.6795
rtoes 1.48531
lfemur -13.9512 -5.35947 -10.8242
ltibia 23.2964
lfoot -17.1196 9.49838
ltoes -55.4913
900
root -0.643035 18.8594 5.14798 4.81056 6.13948 -2.58726
lowerback 14.5611 0.074462 -0.795787
upperback 0.128893 0.0526961 1.03568
thorax -8.05079 0.0800117 1.5457
lowerneck -25.8818 -4.30417 -4.84413
upperneck 14.5505 -5.29254 5.63707
head 9.05589 -2.10575 1.93939
rclavicle -6.95746e-016 1.90833e-014
rhumerus 30.8246 23.1295 -62.4468
rradius 62.99
rwrist -47.308
rhand 5.12088 -63.0489
rfingers 7.12502
rthumb 30.4853 -269.453
lclavicle -6.95746e-016 1.90833e-014
lhumerus 27.283 -26.0253 80.5516
lradius 65.9804
lwrist 59.4036
lhand -21.1368 5.06932
lfingers 7.12502
lthumb 5.24229 34.9845
rfemur 2.27986 -6.8613 16.6122
rtibia -7.95139e-016
rfoot -15.1577 -10.7376
rtoes 1.28492
lfemur -13.855 -5.44765 -10.8233
ltibia 23.305
lfoot -17.1735 9.5522
ltoes -55.5419
901
root -0.646251 18.8582 5.16106 4.74115 6.20486 -2.5833
lowerback 14.476 0.0605225 -0.792597
upperback 0.147187 0.0320481 1.00031
thorax -7.98226 0.0685475 1.50982
lowerneck -25.8261 -4.33885 -4.76582
upperneck 14.51 -5.37822 5.68298
head 9.03701 -2.13717 1.92996
rclavicle 5.2181e-015 -1.19271e-015
rhumerus 29.2259 22.5238 -64.7662
rradius 63.4447
rwrist -45.066
rhand 5.4738 -62.3494
rfingers 7.12502
rthumb 30.8218 -89.7846
lclavicle 5.2181e-015 -1.19271e-015
lhumerus 26.7671 -25.9551 80.9215
lradius 66.5883
lwrist 58.5301
lhand -20.3938 4.62142
lfingers 7.12502
lthumb 5.95967 34.5176
rfemur 2.40519 -6.92378 16.6116
rtibia 1.35174e-014
rfoot -15.18 -10.7316
rtoes 1.26757
lfemur -13.7488 -5.55002 -10.8276
ltibia 23.3098
lfoot -17.1963 9.58978
ltoes -55.5156
902
root -0.649038 18.8555 5.17448 4.66384 6.26313 -2.60749
lowerback 14.3578 0.0378971 -0.747405
upperback 0.154419 0.00833717 0.980879
thorax -7.90696 0.0543268 1.46765
lowerneck -25.8553 -4.42149 -4.66942
upperneck 14.6673 -5.51128 5.58436
head 9.09791 -2.20274 1.85933
rclavicle -5.46658e-015 9.14409e-015
rhumerus 31.3384 23.8528 -62.0179
rradius 63.0135
rwrist -47.7252
rhand 4.20916 -61.359
rfingers 7.12502
rthumb 29.6154 -89.0152
lclavicle -5.46658e-015 9.14409e-015
lhumerus 26.3632 -25.899 81.2421
lradius 67.0101
lwrist 57.9294
lhand -20.0731 4.46334
lfingers 7.12502
lthumb 6.26926 34.3506
rfemur 2.54 -6.9766 16.6346
rtibia 0
rfoot -15.2382 -10.6612
rtoes 1.36943
lfemur -13.6316 -5.626 -10.7957
ltibia 23.3071
lfoot -17.2232 9.557
ltoes -55.4757
